# xmcd
#
# Track frame offsets: 
#        150
#        16880
#        33367
#        45862
#        59157
#        77825
#        104547
#        120887
#        132770
#        148022
#        158990
#        171247
#
# Disc length: 2479 seconds
#
# Revision: 1
# Processed by: cddbd v1.5.1PL0 Copyright (c) Steve Scherf et al.
# Submitted via: ExactAudioCopy v0.95a5
#
DISCID=9909ad0c
DTITLE=Katy Moffatt - Midnight Radio
DYEAR=1996
DGENRE=Folk
TTITLE0=Midnight Radio
TTITLE1=Wings Of A Blackbird
TTITLE2=Rosa's Favorite Son
TTITLE3=St. Anthony With Broken Hands
TTITLE4=Sparrow Of Swansea (for Dylan Thomas)
TTITLE5=The Highwayman
TTITLE6=Sojourner Truth (Ain't I A Woman)
TTITLE7=If You Can't Stand The Heat
TTITLE8=Never Be Alone Again
TTITLE9=The Sound Of One Heart Breaking
TTITLE10=Hank And Audrey
TTITLE11=Nazareth To Bethlehem
EXTD=
EXTT0=
EXTT1=
EXTT2=
EXTT3=
EXTT4=
EXTT5=
EXTT6=
EXTT7=
EXTT8=
EXTT9=
EXTT10=
EXTT11=
PLAYORDER=
